# xmcd
# 
# Track frame offsets:
#     183
#     14898
#     29363
#     42953
#     57148
#     71220
#     86505
#     105253
#     129923
#     143758
#     165990
#     179705
#     196338
#     215893
#     228325
#     241950
# 
# Disc length: 3485
# 
# Revision: 2
# Processed by: cddbd v1.5.2PL0 Copyright (c) Steve Scherf et al.
# Submitted via: fre:ac v1.0.31
# 
DISCID=e00d9b10
DTITLE=Various Artist - Melodien für Millionen
DYEAR=1991
DGENRE=Folk
TTITLE0=Engelbert - Spanish Eyes
TTITLE1=Ivan Rebroff - Stenka Rasin
TTITLE2=Heidi Brühl - Wir wollen niemals auseinandergehn
TTITLE3=Edda Moser - Im schönsten Wiesengrunde
TTITLE4=Stefan Mross - Trompetenträume
TTITLE5=Peter Alexander - Auf die Liebe kommt es an
TTITLE6=Roberto Sacca and Berliner Symphoniker - Dies Bildnis ist bezaubernd schön
TTITLE7=Rondo Veneziano - Serenata (Part 2)
TTITLE8=Marianne and Michael - Wann fangt denn endlich d´ Musi an
TTITLE9=Helen Donath and Siegfried Jerusalem - Wer hat die Liebe uns ins Herz gesenkt
TTITLE10=Roy Black - Ganz in Weiß
TTITLE11=Gerd Agten - Wu de Walder haamlich rauschen
TTITLE12=Rudolf Schock and Berliner Symphoniker - Wolgalied
TTITLE13=Udo Jürgens - Merci, Cherie
TTITLE14=Paul Kuhn und das SFB Tanzorchester - In the Mood
TTITLE15=Engelbert - Coming Home
EXTD=
EXTT0=
EXTT1=
EXTT2=
EXTT3=
EXTT4=
EXTT5=
EXTT6=
EXTT7=
EXTT8=
EXTT9=
EXTT10=
EXTT11=
EXTT12=
EXTT13=
EXTT14=
EXTT15=
PLAYORDER=
